<svg width="30" height="30" viewBox="0 0 30 30" fill="none" xmlns="http://www.w3.org/2000/svg">
<path d="M15 20.7143C13.4086 20.7143 12.0581 20.16 10.9486 19.0514C9.83905 17.9429 9.28476 16.5924 9.28571 15C9.28571 13.4086 9.84 12.0581 10.9486 10.9486C12.0571 9.83905 13.4076 9.28476 15 9.28571C16.5914 9.28571 17.9419 9.84 19.0514 10.9486C20.161 12.0571 20.7152 13.4076 20.7143 15C20.7143 16.5914 20.16 17.9419 19.0514 19.0514C17.9429 20.161 16.5924 20.7152 15 20.7143ZM5 15.7143H0V14.2857H5V15.7143ZM30 15.7143H25V14.2857H30V15.7143ZM14.2857 5V0H15.7143V5H14.2857ZM14.2857 30V25H15.7143V30H14.2857ZM7.49429 8.43429L4.40857 5.43714L5.40143 4.37429L8.41714 7.42286L7.49429 8.43429ZM24.6 25.6257L21.5757 22.5686L22.5071 21.5657L25.5929 24.5629L24.6 25.6257ZM21.5657 7.49429L24.5629 4.40857L25.6257 5.40143L22.5771 8.41714L21.5657 7.49429ZM4.37429 24.6L7.43143 21.5757L8.37857 22.5071L5.41 25.62L4.37429 24.6Z" fill="#F7FC00"/>
</svg>
