<svg width="30" height="30" viewBox="0 0 30 30" fill="none" xmlns="http://www.w3.org/2000/svg">
<path d="M15 0C12.0333 0 9.13319 0.879735 6.66645 2.52796C4.19972 4.17618 2.27713 6.51885 1.14181 9.25975C0.00649919 12.0006 -0.290551 15.0166 0.288227 17.9263C0.867006 20.8361 2.29562 23.5088 4.3934 25.6066C6.49119 27.7044 9.16394 29.133 12.0736 29.7118C14.9834 30.2905 17.9994 29.9935 20.7403 28.8582C23.4811 27.7229 25.8238 25.8003 27.472 23.3335C29.1203 20.8668 30 17.9667 30 15C30 14.2333 29.9333 13.4667 29.8333 12.7333C29.0005 13.9011 27.9002 14.8524 26.6244 15.5077C25.3485 16.1631 23.9343 16.5033 22.5 16.5C20.592 16.5 18.7333 15.894 17.192 14.7694C15.6507 13.6448 14.5064 12.0597 13.9242 10.2427C13.342 8.42567 13.352 6.47071 13.9528 4.65976C14.5535 2.84881 15.7139 1.27547 17.2667 0.166666C16.5333 0.0666665 15.7667 0 15 0Z" fill="black"/>
</svg>
